HIERARCHY
    ROOT Hips
    {
        OFFSET -42.200000 91.615000 -40.070000
        CHANNELS 6 Xposition Yposition Zposition Zrotation Yrotation Xrotation 
        JOINT Thigh_L
        {
            OFFSET 0.103500 1.857800 10.548500
            CHANNELS 3 Zrotation Yrotation Xrotation
            JOINT Shin_L
            {
                OFFSET 43.500000 0.000000 0.000000
                CHANNELS 3 Zrotation Yrotation Xrotation
                JOINT Foot_L
                {
                    OFFSET 42.372000 0.000000 0.000000
                    CHANNELS 3 Zrotation Yrotation Xrotation
                    JOINT Toe_L
                    {
                        OFFSET 17.300000 0.000000 0.000000
                        CHANNELS 3 Zrotation Yrotation Xrotation
                        End Site
                        {
                            OFFSET 10.000000 0.000000 0.000000
                        }
                    }
                }
            }
        }
        JOINT Thigh_R
        {
            OFFSET 0.103500 1.857800 -10.548500
            CHANNELS 3 Zrotation Yrotation Xrotation
            JOINT Shin_R
            {
                OFFSET 43.500000 0.000000 0.000000
                CHANNELS 3 Zrotation Yrotation Xrotation
                JOINT Foot_R
                {
                    OFFSET 42.372000 0.000000 0.000000
                    CHANNELS 3 Zrotation Yrotation Xrotation
                    JOINT Toe_R
                    {
                        OFFSET 17.300000 0.000000 0.000000
                        CHANNELS 3 Zrotation Yrotation Xrotation
                        End Site 
                        {
                            OFFSET 10.000000 0.000000 0.000000
                        }
                    }
                }
            }
        }
        JOINT Spine
        {
            OFFSET 6.900000 -2.600000 0.000000
            CHANNELS 3 Zrotation Yrotation Xrotation
            JOINT Spine1
            {
                OFFSET 12.588000 0.000000 0.000000
                CHANNELS 3 Zrotation Yrotation Xrotation
                JOINT Spine2
                {
                    OFFSET 12.343000 0.000000 0.000000
                    CHANNELS 3 Zrotation Yrotation Xrotation
                    JOINT Neck
                    {
                        OFFSET 25.833000 0.000000 0.000000
                        CHANNELS 3 Zrotation Yrotation Xrotation
                        JOINT Head
                        {
                            OFFSET 11.766600 0.000000 0.000000
                            CHANNELS 3 Zrotation Yrotation Xrotation
                            End Site
                            {
                                OFFSET 10.000000 0.000000 0.000000
                            }
                        }
                    }
                    JOINT Shoulder_L
                    {
                        OFFSET 19.746000 -1.480000 6.000000
                        CHANNELS 3 Zrotation Yrotation Xrotation
                        JOINT UpperArm_L
                        {
                            OFFSET 11.284000 0.000000 0.000000
                            CHANNELS 3 Zrotation Yrotation Xrotation
                            JOINT Forearm_L
                            {
                                OFFSET 33.000000 0.000000 0.000000
                                CHANNELS 3 Zrotation Yrotation Xrotation
                                JOINT Hand_L
                                {
                                    OFFSET 25.200000 0.000000 0.000000
                                    CHANNELS 3 Zrotation Yrotation Xrotation
                                    End Site
                                    {
                                        OFFSET 10.000000 0.000000 0.000000
                                    }
                                }
                            }
                        }
                    }
                    JOINT Shoulder_R
                    {
                        OFFSET 19.745000 -1.480000 -6.000000
                        CHANNELS 3 Zrotation Yrotation Xrotation
                        JOINT UpperArm_R
                        {
                            OFFSET 11.284000 0.000000 0.000000
                            CHANNELS 3 Zrotation Yrotation Xrotation
                            JOINT Forearm_R
                            {
                                OFFSET 33.000000 0.000000 0.000000
                                CHANNELS 3 Zrotation Yrotation Xrotation
                                JOINT Hand_R
                                {
                                    OFFSET 25.200000 0.000000 0.000000
                                    CHANNELS 3 Zrotation Yrotation Xrotation
                                    End Site
                                    {
                                        OFFSET 10.000000 0.000000 0.000000
                                    }
                                }
                            }
                        }
                    }
                }
            }
        }
    }
    MOTION 
Frames: 6 
Frame Time: 0.033333 
0.0 92.71921358100785 0.0 -85.8184582417588 -178.9734822182168 -3.013079394156374e-07 4.701573094896148 -179.12585007822142 0.9069594755448369 -8.259830579340106 -2.504903362767065 -1.8540386285006825 81.77183070571472 -0.8667928405832844 -0.0927388811476183 21.45455308873717 0.003096450877291908 1.318905087311305e-06 2.313776100213302 177.9441863706742 -1.6865908847474134 -14.86045453002779 1.7896468066569757 0.7221679604982014 84.38799123331553 -0.6142709285709811 -0.28693859490976287 21.45455821137905 -0.0031041408848922892 -1.5679393230485544e-05 6.194051390813974 -0.36198847338602497 -0.018731070092192638 2.3547030206068413 -0.6974918210482677 -0.06273796890942487 2.036595070863137 -0.6975828013024463 -0.05841902818783557 2.6486709473896055 0.9217305066769299 -2.2090106032988266 -6.752970893237995 0.45090950557123094 1.1174293002195468 -75.60701124388792 -82.25241647609515 -106.86806307498426 -8.277992052343171 0.812615406560773 -4.792557617943064 0.8318597847124013 -1.7479614151004474 -1.3065809305558833 0.16071664568707433 1.3481070933273858 2.9996671117605676 -100.44143563208172 87.97593058545824 81.39910045251796 -1.5519106533721634 0.08567826647461019 4.283073317184304 -0.7595391804593675 0.9043491693431285 1.7946390346100203 0.3148923447072301 -2.960242832984431 -1.6535051282427544 
-149.9 92.0 -20.1 89.72088623046875 0.35988980531692505 179.7982635498047 169.7919921875 -0.5934650301933289 162.78515625 -24.68376922607422 2.917060136795044 -6.411597728729248 83.83602142333984 3.767106294631958 -3.8422865867614746 21.446300506591797 0.004219390451908112 0.003968079574406147 170.80084228515625 4.527188301086426 -170.35105895996094 -22.512226104736328 -2.7219409942626953 4.831126689910889 86.52877044677734 -2.1868057250976562 6.543285846710205 21.448083877563477 -0.003281280165538192 0.00803178921341896 6.4476728439331055 -0.09955968707799911 -0.3390444815158844 1.8391753435134888 -0.30290865898132324 -0.6626608967781067 1.5465312004089355 -0.3649381995201111 -0.6803996562957764 1.7217650413513184 5.727869510650635 -3.303327798843384 -16.216062545776367 -4.788596153259277 -0.5397658348083496 -156.5102996826172 -82.3503189086914 -25.454105377197266 -13.163798332214355 61.04803466796875 43.38351821899414 -30.429574966430664 -15.632706642150879 1.2050936222076416 12.463528633117676 -4.263286590576172 -6.443609714508057 -178.1437225341797 77.12947845458984 3.5476577281951904 -1.183775782585144 -60.60668182373047 -22.621139526367188 -36.93186569213867 12.628447532653809 -1.2949695587158203 6.254123687744141 3.1990737915039062 -6.239296913146973
-149.9 92.0 -19.9 89.5462646484375 0.32858410477638245 179.49517822265625 168.3042755126953 -1.0512020587921143 163.20838928222656 -27.267791748046875 2.959106922149658 -6.0694580078125 82.69568634033203 3.830803394317627 -4.013313293457031 21.443227767944336 0.008010483346879482 0.005759341176599264 171.1072998046875 4.4643330574035645 -170.58189392089844 -21.514305114746094 -2.4580557346343994 4.678504467010498 87.10370635986328 -1.9624320268630981 6.54461669921875 21.442890167236328 -0.004766407422721386 0.011623986065387726 7.120063781738281 -0.2540687918663025 -0.2997039258480072 2.0456998348236084 -0.3959510624408722 -0.6024513244628906 1.7644330263137817 -0.4034375548362732 -0.6551074981689453 1.2675963640213013 5.905746936798096 -3.3078112602233887 -16.45294952392578 -4.872138977050781 -0.4658912122249603 -156.74264526367188 -82.33766174316406 -25.184717178344727 -12.28225040435791 61.24525451660156 43.781944274902344 -28.52629852294922 -15.440546035766602 0.9703097343444824 12.64063549041748 -4.187867164611816 -6.777679920196533 -179.29295349121094 76.91117858886719 2.5842208862304688 -3.299690008163452 -60.612266540527344 -20.191390991210938 -37.384742736816406 12.624983787536621 -1.3261350393295288 6.169793605804443 3.4342100620269775 -6.278350353240967
-150.2 91.6 -19.7 89.33507537841797 0.4817243814468384 179.24708557128906 166.5229949951172 -1.703892469406128 163.79248046875 -30.376314163208008 3.0791282653808594 -5.572451114654541 82.63021087646484 3.855163335800171 -4.13604736328125 21.444339752197266 0.015143769793212414 0.005244078114628792 170.87295532226562 4.435199737548828 -170.849365234375 -21.38092041015625 -2.1222832202911377 4.445123672485352 88.3261947631836 -1.4466545581817627 6.663957118988037 21.443998336791992 -0.00821145623922348 0.01079134177416563 8.057110786437988 -0.4263259470462799 -0.28347498178482056 2.520327568054199 -0.3828413784503937 -0.636247456073761 2.1418256759643555 -0.3333544135093689 -0.7561486959457397 0.6718990206718445 6.281445503234863 -3.2554798126220703 -16.8979549407959 -5.0451741218566895 -0.2765495181083679 -157.5720672607422 -82.35717010498047 -24.28095245361328 -11.407486915588379 61.562599182128906 44.055877685546875 -26.28681755065918 -15.20810317993164 0.6858910918235779 12.821157455444336 -4.160226821899414 -7.128335952758789 179.58335876464844 76.57330322265625 1.651243805885315 -6.243041515350342 -60.49815368652344 -16.653539657592773 -37.75035095214844 12.637158393859863 -1.3543537855148315 6.066597938537598 3.7532243728637695 -6.320184230804443
-150.3 91.0 -19.7 88.95841217041016 0.7961456775665283 178.97157287597656 164.36318969726562 -2.4782309532165527 164.2552032470703 -34.06532669067383 3.263136863708496 -4.989173412322998 83.37332153320312 3.834355115890503 -4.221496105194092 21.445255279541016 0.020876578986644745 0.0029973690398037434 169.8341064453125 4.494104385375977 -171.22311401367188 -22.813064575195312 -1.7691761255264282 4.2085185050964355 90.44216918945312 -0.8366051912307739 6.821652889251709 21.449769973754883 -0.012052091769874096 0.011050947941839695 9.29800033569336 -0.5529715418815613 -0.28754884004592896 3.3628907203674316 -0.314359188079834 -0.7448622584342957 2.8195011615753174 -0.2245434820652008 -0.9766119122505188 -0.031014451757073402 6.7367777824401855 -3.15849232673645 -17.578454971313477 -5.255285739898682 -0.014116561971604824 -159.03598022460938 -82.33194732666016 -22.71308135986328 -10.15820026397705 61.829959869384766 44.54796600341797 -24.38886833190918 -14.955570220947266 0.46721792221069336 12.981917381286621 -4.1969099044799805 -7.429076671600342 178.4080352783203 76.19923400878906 0.6581860184669495 -9.417465209960938 -60.25928497314453 -12.455289840698242 -38.63873291015625 12.704368591308594 -1.4410576820373535 5.894943714141846 4.1901445388793945 -6.420489311218262
-150.0 90.1 -19.8 88.32162475585938 1.1154992580413818 178.61448669433594 162.05331420898438 -3.2229714393615723 164.69210815429688 -38.01983642578125 3.530634880065918 -4.429404258728027 84.98139953613281 3.818325996398926 -4.218578338623047 21.446340560913086 0.024587959051132202 -0.0017214016988873482 168.06723022460938 4.683574676513672 -171.60154724121094 -25.718948364257812 -1.4285352230072021 3.9103968143463135 93.28054809570312 -0.11349199712276459 7.103387832641602 21.45877456665039 -0.015640152618288994 0.012439624406397343 10.616246223449707 -0.7705210447311401 -0.32425999641418457 4.465588569641113 -0.34144651889801025 -0.9525484442710876 3.757777214050293 -0.1477586328983307 -1.3555601835250854 -0.8182828426361084 7.149268627166748 -3.0351152420043945 -18.429954528808594 -5.419543743133545 0.26283732056617737 -159.9922637939453 -82.1800308227539 -21.559289932250977 -7.695993423461914 61.77574157714844 46.21485137939453 -22.8912296295166 -14.665205001831055 0.3351493179798126 13.120782852172852 -4.233537197113037 -7.663589954376221 177.5388641357422 75.81861114501953 -0.10590057820081711 -11.347383499145508 -60.37286376953125 -9.270967483520508 -40.16774368286133 12.76081371307373 -1.5915653705596924 5.643972873687744 4.673182964324951 -6.614194393157959
